<svg width="21" height="21" viewBox="0 0 21 21" fill="none" xmlns="http://www.w3.org/2000/svg">
<path d="M10.1691 11.4403C10.8711 11.4403 11.4402 10.8712 11.4402 10.1692C11.4402 9.46714 10.8711 8.89803 10.1691 8.89803C9.46706 8.89803 8.89795 9.46714 8.89795 10.1692C8.89795 10.8712 9.46706 11.4403 10.1691 11.4403Z" fill="black"/>
<path d="M5.08462 11.4403C5.78665 11.4403 6.35576 10.8712 6.35576 10.1692C6.35576 9.46714 5.78665 8.89803 5.08462 8.89803C4.38259 8.89803 3.81348 9.46714 3.81348 10.1692C3.81348 10.8712 4.38259 11.4403 5.08462 11.4403Z" fill="black"/>
<path d="M15.2536 11.4403C15.9556 11.4403 16.5247 10.8712 16.5247 10.1692C16.5247 9.46714 15.9556 8.89803 15.2536 8.89803C14.5515 8.89803 13.9824 9.46714 13.9824 10.1692C13.9824 10.8712 14.5515 11.4403 15.2536 11.4403Z" fill="black"/>
</svg>
