<svg width="11" height="11" viewBox="0 0 11 11" fill="none" xmlns="http://www.w3.org/2000/svg">
<rect width="10.1691" height="10.1691" fill="white"/>
<path d="M10.2383 4.03467C10.2121 5.46214 9.16768 6.38435 8.15137 7.26611L7.76465 7.60498L7.36328 7.96338L7.3584 7.96826C7.24029 8.08109 7.1199 8.19148 6.99902 8.30127L7 8.30029C7.00654 8.27414 7.01034 8.24551 7.01367 8.21729C7.0253 8.1186 7.03001 7.94902 7.03125 7.6792C7.13736 7.58572 7.20408 7.52936 7.24512 7.49658H7.24805C7.26387 7.49069 7.28793 7.47849 7.29688 7.47314C7.30242 7.46949 7.31177 7.46232 7.31543 7.45947C7.32747 7.4499 7.33606 7.44083 7.33691 7.43994C7.34448 7.43207 7.35082 7.42524 7.35156 7.42432C7.35378 7.42159 7.36636 7.40133 7.37988 7.37451C7.37902 7.37663 7.37851 7.37906 7.37793 7.38037C7.37383 7.38929 7.36989 7.39597 7.36816 7.39893C7.36463 7.40496 7.36151 7.40992 7.36035 7.41162C7.35471 7.41989 7.35037 7.42547 7.35449 7.42041C7.36283 7.41018 7.39424 7.37101 7.48438 7.271C7.57518 7.19005 7.66039 7.11102 7.74121 7.03369C7.79582 6.99358 7.8469 6.96186 7.90137 6.9292C8.04381 6.84379 8.20636 6.74939 8.44629 6.51416L8.45508 6.50537L8.46387 6.49463C8.62016 6.29911 9.11154 5.64111 9.4834 5.05811C9.57204 4.91913 9.65526 4.7796 9.72754 4.6499C9.87262 4.49077 9.99618 4.35721 10.083 4.25439L10.2012 4.10498L10.207 4.09619C10.2199 4.07582 10.2301 4.05501 10.2383 4.03467ZM9.05664 4.47412C8.91168 4.72945 8.78129 4.95507 8.65723 5.1626C8.29125 5.55012 7.88025 5.98307 7.47266 6.40576C6.92908 6.96948 6.39483 7.51697 5.99316 7.92334C5.90013 8.01746 5.81342 8.10297 5.73633 8.18018C5.7881 7.84826 5.86947 7.41736 5.97949 6.99756C6.09389 6.56111 6.23472 6.15308 6.39453 5.87842C6.47505 5.74007 6.55065 5.6537 6.61426 5.60986C6.66877 5.57229 6.70535 5.5699 6.74414 5.5835L6.81641 5.37842L6.87891 5.19678C6.88362 5.20654 6.88896 5.21759 6.8916 5.23096C6.89758 5.26125 6.89267 5.2873 6.88672 5.3042C6.87752 5.33009 6.86784 5.33069 6.89453 5.30811C6.91716 5.289 6.95359 5.26396 7.00684 5.23389C7.22543 5.11042 7.60872 4.96522 8.0332 4.81885C8.37734 4.70019 8.75713 4.57631 9.05664 4.47412ZM0.678711 3.97217C0.653354 3.22758 0.924459 2.50326 1.43164 1.95752C1.87536 1.48015 2.46841 1.17328 3.1084 1.08447L3.38574 1.06006C3.74639 1.04975 4.10484 1.12058 4.43457 1.26709C4.76473 1.41383 5.05778 1.63261 5.29199 1.90771L5.45801 2.10303L5.62305 1.90771C5.85746 1.63171 6.1514 1.41195 6.48242 1.26514C6.81303 1.11855 7.17273 1.04775 7.53418 1.05908V1.06006C8.27863 1.08917 8.98106 1.41184 9.48828 1.95752C9.94694 2.45105 10.2095 3.09073 10.2373 3.75928C10.2217 3.71331 10.2034 3.67212 10.1846 3.64014C10.1222 3.53426 10.0267 3.42917 9.95605 3.3501C9.90554 3.29355 9.869 3.24911 9.84277 3.21533C9.88128 3.17227 9.9108 3.11976 9.91895 3.0542C9.93059 2.9603 9.89775 2.87921 9.87109 2.82861C9.8201 2.73192 9.73201 2.63494 9.66504 2.56396C9.7031 2.5278 9.73999 2.4731 9.7373 2.39209C9.73378 2.29143 9.66754 2.23109 9.65234 2.21729C9.60661 2.17576 9.5452 2.14554 9.50098 2.12646C9.44978 2.1044 9.39017 2.0844 9.33105 2.06787C9.27229 2.05145 9.20854 2.03686 9.14746 2.02979C9.09254 2.02343 9.01496 2.01983 8.94238 2.0415C8.90424 2.05289 8.84894 2.07627 8.80469 2.12842C8.75553 2.18636 8.73852 2.25756 8.74414 2.32275C8.75333 2.42798 8.82141 2.51367 8.87207 2.56982C9.1844 2.91605 9.35869 3.36173 9.37109 3.82471L9.04688 3.93896L9.13574 3.98584C9.11509 3.99332 9.09365 4.00234 9.07129 4.01025C8.74872 4.12437 8.32573 4.25803 7.8916 4.40771C7.4727 4.55216 7.05163 4.70889 6.79297 4.85498C6.72712 4.89218 6.66474 4.93254 6.61328 4.97607C6.56601 5.01606 6.50671 5.07691 6.47754 5.15967C6.47363 5.17079 6.47147 5.18279 6.46875 5.19482C6.43375 5.21091 6.39941 5.22926 6.36719 5.25146C6.22761 5.34768 6.11407 5.49727 6.01953 5.65967C5.8293 5.9865 5.67657 6.44087 5.55957 6.88721C5.44152 7.33761 5.35491 7.79725 5.30176 8.14404C5.2752 8.31739 5.2571 8.46508 5.24707 8.5708C5.24664 8.57539 5.2465 8.57999 5.24609 8.58447C5.23378 8.59858 5.22244 8.61524 5.21289 8.63525C5.16376 8.73856 5.2123 8.82587 5.22266 8.84326C5.25145 8.89157 5.29188 8.91813 5.30469 8.92627C5.32942 8.94198 5.35901 8.95385 5.3916 8.96436L5.45996 9.0083L5.49512 8.98486C5.53747 8.98939 5.58313 8.99174 5.63184 8.98682C5.87166 8.96251 6.18993 8.81329 6.58398 8.39795C6.59797 8.41677 6.61897 8.4399 6.64746 8.4585C6.67671 8.4775 6.72404 8.49605 6.7832 8.49268C6.46735 8.77113 6.14391 9.04088 5.81055 9.29834C5.70576 9.36527 5.58435 9.40186 5.45996 9.40186C5.33529 9.40185 5.21334 9.36557 5.1084 9.29834C4.71812 8.99651 4.33961 8.67982 3.97363 8.34912L3.6084 8.01025L3.60352 8.00537L3.15723 7.60693L3.15625 7.60596C3.03177 7.49507 2.90666 7.38625 2.78418 7.27979C1.69825 6.33571 0.678787 5.43477 0.678711 3.97998H0.679688L0.678711 3.97217Z" fill="#FF0014" stroke="#FF0014" stroke-width="0.434629"/>
</svg>
