<svg width="11" height="11" viewBox="0 0 11 11" fill="none" xmlns="http://www.w3.org/2000/svg">
<path d="M7.11483 1.6541C7.67178 1.68489 8.19398 1.93455 8.56764 2.34869C8.9413 2.76283 9.13613 3.30787 9.10968 3.86504C9.10968 5.16669 7.98599 5.96623 6.90764 6.9251C5.84327 7.87549 5.26998 8.39496 5.0844 8.51487C4.88229 8.38395 4.17638 7.74244 3.26116 6.9251C2.17814 5.96242 1.05911 5.15525 1.05911 3.86504C1.03266 3.30787 1.22749 2.76283 1.60115 2.34869C1.97482 1.93455 2.49702 1.68489 3.05396 1.6541C3.36248 1.64475 3.66816 1.71561 3.94109 1.85977C4.21403 2.00392 4.44489 2.21643 4.61111 2.47653C4.96703 2.97439 5.02635 3.22353 5.08567 3.22353C5.14499 3.22353 5.20346 2.97439 5.55599 2.47526C5.72126 2.21396 5.95221 2.00061 6.22576 1.85651C6.4993 1.71241 6.80587 1.64262 7.11483 1.6541ZM7.11483 0.80667C6.73007 0.794351 6.34749 0.868991 5.99557 1.02503C5.64366 1.18107 5.33148 1.41449 5.08228 1.70791C4.83329 1.41535 4.52175 1.18246 4.17068 1.02647C3.8196 0.87048 3.43796 0.795362 3.05396 0.80667C2.27215 0.837241 1.53426 1.17614 1.00163 1.74926C0.469007 2.32238 0.18499 3.08309 0.211686 3.86504C0.211686 5.39464 1.29216 6.33402 2.33661 7.24204C2.45652 7.34627 2.5777 7.45135 2.69804 7.55855L3.13319 7.94752C3.60777 8.3991 4.10531 8.82592 4.62382 9.22629C4.76101 9.31512 4.92096 9.36238 5.0844 9.36238C5.24783 9.36238 5.40778 9.31512 5.54497 9.22629C6.07999 8.8137 6.59284 8.37313 7.08136 7.90642L7.47202 7.55728C7.59617 7.44711 7.72202 7.33737 7.84701 7.22932C8.83596 6.3713 9.95711 5.39888 9.95711 3.86504C9.9838 3.08309 9.69979 2.32238 9.16716 1.74926C8.63453 1.17614 7.89664 0.837241 7.11483 0.80667Z" fill="#262626"/>
</svg>
